<?xml version="1.0" encoding="UTF-8"?>
<!DOCTYPE svg PUBLIC "-//W3C//DTD SVG 1.1//EN" "http://www.w3.org/Graphics/SVG/1.1/DTD/svg11.dtd">
<svg xmlns="http://www.w3.org/2000/svg" version="1.1" width="512px" height="512px" style="shape-rendering:geometricPrecision; text-rendering:geometricPrecision; image-rendering:optimizeQuality; fill-rule:evenodd; clip-rule:evenodd" xmlns:xlink="http://www.w3.org/1999/xlink">
<g><path style="opacity:0.996" fill="#1089ff" d="M 192.5,41.5 C 234.168,41.3333 275.835,41.5 317.5,42C 339.807,42.2051 361.807,44.8717 383.5,50C 417.648,63.1465 442.481,86.3132 458,119.5C 461.426,128.206 463.76,137.206 465,146.5C 467.325,161.412 468.658,176.412 469,191.5C 469.667,233.833 469.667,276.167 469,318.5C 468.595,335.956 466.928,353.289 464,370.5C 457.329,399.167 442.495,422.667 419.5,441C 403.486,454.17 385.153,462.17 364.5,465C 349.259,467.391 333.926,468.724 318.5,469C 276.833,469.667 235.167,469.667 193.5,469C 175.707,468.655 158.04,466.989 140.5,464C 111.833,457.329 88.3326,442.495 70,419.5C 56.8296,403.486 48.8296,385.153 46,364.5C 43.6755,349.588 42.3422,334.588 42,319.5C 41.3333,277.5 41.3333,235.5 42,193.5C 37.0453,127.205 64.212,79.7047 123.5,51C 128.64,48.7314 133.973,47.0647 139.5,46C 157.267,43.896 174.934,42.396 192.5,41.5 Z M 165.5,149.5 C 169.605,149.234 173.605,149.734 177.5,151C 182.603,154.266 187.27,158.1 191.5,162.5C 195.73,158.1 200.397,154.266 205.5,151C 221.555,147.384 230.888,153.717 233.5,170C 233.344,174.136 232.177,177.969 230,181.5C 220.833,190.667 211.667,199.833 202.5,209C 195.167,213.667 187.833,213.667 180.5,209C 171.333,199.833 162.167,190.667 153,181.5C 146.314,166.544 150.481,155.878 165.5,149.5 Z M 169.5,255.5 C 226.834,255.333 284.168,255.5 341.5,256C 356.762,258.275 363.262,267.108 361,282.5C 358.833,290 354,294.833 346.5,297C 285.833,297.667 225.167,297.667 164.5,297C 152.569,292.647 147.736,284.147 150,271.5C 153.131,261.853 159.631,256.52 169.5,255.5 Z M 169.5,319.5 C 207.535,319.037 245.535,319.537 283.5,321C 294.677,325.85 299.177,334.35 297,346.5C 294.833,354 290,358.833 282.5,361C 243.167,361.667 203.833,361.667 164.5,361C 152.569,356.647 147.736,348.147 150,335.5C 153.131,325.853 159.631,320.52 169.5,319.5 Z"/></g>
</svg>
