<?xml version="1.0" encoding="UTF-8"?>
<!DOCTYPE svg PUBLIC "-//W3C//DTD SVG 1.1//EN" "http://www.w3.org/Graphics/SVG/1.1/DTD/svg11.dtd">
<svg xmlns="http://www.w3.org/2000/svg" version="1.1" width="329px" height="328px" style="shape-rendering:geometricPrecision; text-rendering:geometricPrecision; image-rendering:optimizeQuality; fill-rule:evenodd; clip-rule:evenodd" xmlns:xlink="http://www.w3.org/1999/xlink">
<g><path style="opacity:0.466" fill="#b3c3dc" d="M 189.5,8.5 C 181.038,8.71806 172.538,8.05139 164,6.5C 150.823,8.07671 137.657,9.74338 124.5,11.5C 137.303,7.97938 150.469,5.97938 164,5.5C 172.7,6.02547 181.2,7.02547 189.5,8.5 Z"/></g>
<g><path style="opacity:1" fill="#d1e0fa" d="M 189.5,8.5 C 237.315,16.8203 274.148,41.487 300,82.5C 309.261,98.0222 315.428,114.689 318.5,132.5C 319.993,149.463 320.66,166.463 320.5,183.5C 311.822,242.34 280.489,284.173 226.5,309C 165.546,331.818 109.88,322.818 59.5,282C 13.8395,237.884 -1.99384,184.717 12,122.5C 16.4867,105.532 23.6533,89.8652 33.5,75.5C 37.7989,72.3571 41.2989,68.3571 44,63.5C 50.8063,57.3604 57.3063,50.8604 63.5,44C 71.6722,38.4128 79.6722,32.5795 87.5,26.5C 92.6851,24.9111 97.6851,22.7445 102.5,20C 109.298,17.2134 116.298,14.88 123.5,13C 124.056,12.6174 124.389,12.1174 124.5,11.5C 137.657,9.74338 150.823,8.07671 164,6.5C 172.538,8.05139 181.038,8.71806 189.5,8.5 Z"/></g>
<g><path style="opacity:0.859" fill="#b1c0da" d="M 124.5,11.5 C 124.389,12.1174 124.056,12.6174 123.5,13C 116.298,14.88 109.298,17.2134 102.5,20C 97.6851,22.7445 92.6851,24.9111 87.5,26.5C 98.8708,19.3703 111.204,14.3703 124.5,11.5 Z"/></g>
<g><path style="opacity:0.91" fill="#bbcbe4" d="M 87.5,26.5 C 79.6722,32.5795 71.6722,38.4128 63.5,44C 57.3063,50.8604 50.8063,57.3604 44,63.5C 41.2989,68.3571 37.7989,72.3571 33.5,75.5C 47.7514,54.9096 65.7514,38.5763 87.5,26.5 Z"/></g>
<g><path style="opacity:1" fill="#aac2ef" d="M 173.5,36.5 C 173.5,36.1667 173.5,35.8333 173.5,35.5C 181.285,35.1286 188.618,36.462 195.5,39.5C 188.201,38.24 180.867,37.24 173.5,36.5 Z"/></g>
<g><path style="opacity:1" fill="#6f92cc" d="M 173.5,35.5 C 173.5,35.8333 173.5,36.1667 173.5,36.5C 160.025,36.0202 146.691,37.1869 133.5,40C 131.277,40.5662 129.277,41.3995 127.5,42.5C 126.833,42.5 126.167,42.5 125.5,42.5C 124.833,42.5 124.167,42.5 123.5,42.5C 129.66,39.2939 136.326,37.4605 143.5,37C 153.459,35.7443 163.459,35.2443 173.5,35.5 Z"/></g>
<g><path style="opacity:1" fill="#265eb9" d="M 199.5,63.5 C 193.158,63.3338 186.825,63.5005 180.5,64C 178.509,64.3736 176.842,65.207 175.5,66.5C 172.572,66.5651 169.905,67.2318 167.5,68.5C 166.833,68.5 166.167,68.5 165.5,68.5C 165.953,67.5416 166.619,66.7083 167.5,66C 159.921,62.4296 151.921,59.763 143.5,58C 134.03,57.6782 124.696,58.6782 115.5,61C 109.867,66.376 103.2,69.5426 95.5,70.5C 92.3482,72.2835 91.3482,74.7835 92.5,78C 91.7248,79.2295 90.7248,79.5628 89.5,79C 88.4495,77.6152 87.1161,76.6152 85.5,76C 87.158,75.2747 87.658,74.108 87,72.5C 84.9555,73.772 83.1222,73.4386 81.5,71.5C 84.9611,65.5338 89.7944,61.2005 96,58.5C 96.5,58.8333 97,59.1667 97.5,59.5C 96.3128,60.5195 95.3128,61.6861 94.5,63C 95.2752,64.2295 96.2752,64.5628 97.5,64C 100.679,62.0762 101.013,59.9096 98.5,57.5C 101.105,53.4208 103.438,53.5874 105.5,58C 107.218,58.346 108.885,58.846 110.5,59.5C 111.583,58.635 111.749,57.635 111,56.5C 109.58,54.578 107.747,53.2446 105.5,52.5C 112.584,49.8244 119.251,46.4911 125.5,42.5C 126.167,42.5 126.833,42.5 127.5,42.5C 133.051,40.8116 138.718,40.3116 144.5,41C 152.002,43.3709 159.668,45.3709 167.5,47C 173.643,50.4855 179.643,54.1522 185.5,58C 182.999,59.4177 183.332,60.4177 186.5,61C 185.5,61.3333 184.5,61.6667 183.5,62C 189.016,62.1733 194.349,62.6733 199.5,63.5 Z"/></g>
<g><path style="opacity:1" fill="#809ed7" d="M 196.5,39.5 C 201.854,40.3561 206.854,42.0228 211.5,44.5C 206.085,43.8062 201.085,42.1395 196.5,39.5 Z"/></g>
<g><path style="opacity:1" fill="#2157ae" d="M 173.5,36.5 C 180.867,37.24 188.201,38.24 195.5,39.5C 195.833,39.5 196.167,39.5 196.5,39.5C 201.085,42.1395 206.085,43.8062 211.5,44.5C 216.132,45.8139 220.132,48.1472 223.5,51.5C 221.833,51.5 220.167,51.5 218.5,51.5C 218.5,50.5 218.5,49.5 218.5,48.5C 215.013,48.0946 211.68,47.0946 208.5,45.5C 208.167,45.8333 207.833,46.1667 207.5,46.5C 211.455,52.7756 217.121,56.6089 224.5,58C 226.369,60.6126 228.703,62.7793 231.5,64.5C 230.167,65.1667 228.833,65.8333 227.5,66.5C 228.853,67.5237 229.52,68.857 229.5,70.5C 222.321,67.9088 214.987,65.9088 207.5,64.5C 205.052,63.5269 202.385,63.1936 199.5,63.5C 194.349,62.6733 189.016,62.1733 183.5,62C 184.5,61.6667 185.5,61.3333 186.5,61C 183.332,60.4177 182.999,59.4177 185.5,58C 179.643,54.1522 173.643,50.4855 167.5,47C 159.668,45.3709 152.002,43.3709 144.5,41C 138.718,40.3116 133.051,40.8116 127.5,42.5C 129.277,41.3995 131.277,40.5662 133.5,40C 146.691,37.1869 160.025,36.0202 173.5,36.5 Z"/></g>
<g><path style="opacity:1" fill="#395da2" d="M 225.5,51.5 C 228.941,52.7771 232.274,54.2771 235.5,56C 238.703,59.3709 242.036,62.5375 245.5,65.5C 243.821,65.1077 242.154,64.6077 240.5,64C 235.849,59.3514 230.849,55.1848 225.5,51.5 Z"/></g>
<g><path style="opacity:1" fill="#2c66c2" d="M 123.5,42.5 C 124.167,42.5 124.833,42.5 125.5,42.5C 119.251,46.4911 112.584,49.8244 105.5,52.5C 107.747,53.2446 109.58,54.578 111,56.5C 111.749,57.635 111.583,58.635 110.5,59.5C 108.885,58.846 107.218,58.346 105.5,58C 103.438,53.5874 101.105,53.4208 98.5,57.5C 101.013,59.9096 100.679,62.0762 97.5,64C 96.2752,64.5628 95.2752,64.2295 94.5,63C 95.3128,61.6861 96.3128,60.5195 97.5,59.5C 97,59.1667 96.5,58.8333 96,58.5C 89.7944,61.2005 84.9611,65.5338 81.5,71.5C 83.1222,73.4386 84.9555,73.772 87,72.5C 87.658,74.108 87.158,75.2747 85.5,76C 87.1161,76.6152 88.4495,77.6152 89.5,79C 90.7248,79.5628 91.7248,79.2295 92.5,78C 91.3482,74.7835 92.3482,72.2835 95.5,70.5C 103.2,69.5426 109.867,66.376 115.5,61C 124.696,58.6782 134.03,57.6782 143.5,58C 151.921,59.763 159.921,62.4296 167.5,66C 166.619,66.7083 165.953,67.5416 165.5,68.5C 158.957,70.0231 153.291,73.0231 148.5,77.5C 147.391,77.5569 146.391,77.8902 145.5,78.5C 144.909,77.8485 144.243,77.1818 143.5,76.5C 145.078,75.7022 146.744,75.2022 148.5,75C 146.5,73.3333 144.5,71.6667 142.5,70C 139.776,69.7305 137.109,69.2305 134.5,68.5C 127.994,70.9596 121.327,72.7929 114.5,74C 113.531,75.7583 112.364,76.2583 111,75.5C 104.89,79.1256 99.0571,83.2923 93.5,88C 91.0413,92.1232 88.208,95.9565 85,99.5C 83.698,106.434 81.0314,112.767 77,118.5C 70.6881,148.859 79.1881,173.859 102.5,193.5C 133.601,210.847 160.435,205.514 183,177.5C 183.624,175.536 183.124,173.869 181.5,172.5C 182.167,171.833 182.833,171.167 183.5,170.5C 186.307,169.98 188.973,169.647 191.5,169.5C 192.15,169.196 192.817,168.863 193.5,168.5C 195.952,169.788 197.952,171.454 199.5,173.5C 198.262,172.588 196.928,172.421 195.5,173C 194.833,175 193.5,176.333 191.5,177C 195.404,178.182 196.238,180.349 194,183.5C 189.936,186.777 186.436,190.61 183.5,195C 180.982,196.502 178.482,198.002 176,199.5C 175.51,200.793 175.343,202.127 175.5,203.5C 172.484,203.841 169.818,205.007 167.5,207C 164.854,207.497 162.187,207.664 159.5,207.5C 159.5,208.833 159.5,210.167 159.5,211.5C 157.692,211.491 156.025,211.991 154.5,213C 141.833,213.667 129.167,213.667 116.5,213C 113.435,211.956 110.768,210.29 108.5,208C 105.774,207.818 103.107,207.318 100.5,206.5C 96.3463,201.607 92.013,196.94 87.5,192.5C 85.9547,191.548 84.288,191.215 82.5,191.5C 80.5305,186.454 78.1971,181.454 75.5,176.5C 74.3112,175.571 72.9778,175.238 71.5,175.5C 70.0798,167.866 68.4132,160.2 66.5,152.5C 65.363,141.322 65.363,130.156 66.5,119C 69.4596,112.844 71.2929,106.344 72,99.5C 74.9453,97.8161 75.112,95.9828 72.5,94C 76.4511,89.3822 80.7844,85.0489 85.5,81C 84.0804,79.5444 82.747,78.0444 81.5,76.5C 79.8513,77.6477 78.3513,78.981 77,80.5C 75.4878,79.7433 74.1545,78.7433 73,77.5C 71.883,78.9494 71.2163,80.6161 71,82.5C 68.136,84.6805 65.136,86.6805 62,88.5C 61.5065,90.1341 61.3398,91.8008 61.5,93.5C 60.2804,95.2821 59.6138,97.2821 59.5,99.5C 57.5,99.8333 55.5,100.167 53.5,100.5C 53.1336,102.905 52.4669,105.238 51.5,107.5C 51.2528,108.713 50.5862,109.38 49.5,109.5C 53.709,96.3138 61.0424,85.3138 71.5,76.5C 74.5,74.1667 77.1667,71.5 79.5,68.5C 91.9376,56.273 106.604,47.6063 123.5,42.5 Z"/></g>
<g><path style="opacity:1" fill="#7b9cd5" d="M 199.5,63.5 C 202.385,63.1936 205.052,63.5269 207.5,64.5C 196.695,63.9909 186.029,64.6576 175.5,66.5C 176.842,65.207 178.509,64.3736 180.5,64C 186.825,63.5005 193.158,63.3338 199.5,63.5 Z"/></g>
<g><path style="opacity:1" fill="#19499b" d="M 223.5,51.5 C 224.167,51.5 224.833,51.5 225.5,51.5C 230.849,55.1848 235.849,59.3514 240.5,64C 242.154,64.6077 243.821,65.1077 245.5,65.5C 252.854,70.8545 259.188,77.1878 264.5,84.5C 265.08,86.7488 266.413,88.4154 268.5,89.5C 270.25,90.6594 271.25,92.326 271.5,94.5C 272.06,96.8008 272.56,99.1341 273,101.5C 273.414,101.043 273.914,100.709 274.5,100.5C 275.346,104.234 276.846,107.568 279,110.5C 279.826,113.212 279.326,115.545 277.5,117.5C 276.121,114.693 274.454,112.026 272.5,109.5C 269.144,102.785 264.81,96.7846 259.5,91.5C 250.819,82.5033 240.819,75.5033 229.5,70.5C 229.52,68.857 228.853,67.5237 227.5,66.5C 228.833,65.8333 230.167,65.1667 231.5,64.5C 228.703,62.7793 226.369,60.6126 224.5,58C 217.121,56.6089 211.455,52.7756 207.5,46.5C 207.833,46.1667 208.167,45.8333 208.5,45.5C 211.68,47.0946 215.013,48.0946 218.5,48.5C 218.5,49.5 218.5,50.5 218.5,51.5C 220.167,51.5 221.833,51.5 223.5,51.5 Z"/></g>
<g><path style="opacity:1" fill="#e2ebfc" d="M 198.5,244.5 C 199.669,241.489 201.336,238.822 203.5,236.5C 204.71,236.068 205.71,235.401 206.5,234.5C 206.724,236.046 207.057,237.713 207.5,239.5C 208.935,238.176 209.935,236.51 210.5,234.5C 211.451,233.674 212.451,233.508 213.5,234C 213.167,234.333 212.833,234.667 212.5,235C 214.004,236.491 214.837,238.324 215,240.5C 217.459,238.95 218.126,236.95 217,234.5C 218.676,233.939 220.009,232.939 221,231.5C 221.182,228.774 221.682,226.107 222.5,223.5C 223.316,225.287 224.316,226.954 225.5,228.5C 226.941,227.135 228.274,225.635 229.5,224C 227.866,223.506 226.199,223.34 224.5,223.5C 224.436,218.571 226.77,215.904 231.5,215.5C 231.367,222.538 233.367,222.705 237.5,216C 237.043,215.586 236.709,215.086 236.5,214.5C 238.717,211.932 239.884,208.932 240,205.5C 242.386,204.237 244.219,202.403 245.5,200C 245.043,199.586 244.709,199.086 244.5,198.5C 248.009,194.824 250.509,190.491 252,185.5C 252.667,170.833 252.667,156.167 252,141.5C 248.946,133.28 247.28,133.614 247,142.5C 246.667,142.167 246.333,141.833 246,141.5C 244.501,136.65 242.334,132.15 239.5,128C 241.833,127.667 244.167,127.333 246.5,127C 244.798,124.765 243.798,122.265 243.5,119.5C 242.167,119.5 240.833,119.5 239.5,119.5C 239.731,114.882 238.231,110.882 235,107.5C 230.659,104.325 226.826,100.658 223.5,96.5C 218.481,95.6477 215.148,92.8144 213.5,88C 211.527,87.5045 209.527,87.3379 207.5,87.5C 207.5,86.1667 207.5,84.8333 207.5,83.5C 203.04,84.1153 199.04,83.1153 195.5,80.5C 192.914,79.52 190.247,79.1866 187.5,79.5C 187.649,78.448 187.483,77.448 187,76.5C 186.667,76.8333 186.333,77.1667 186,77.5C 183.711,75.0943 181.044,74.4276 178,75.5C 176.442,73.2324 174.276,72.0657 171.5,72C 171.833,71.6667 172.167,71.3333 172.5,71C 170.19,70.5034 167.857,70.3367 165.5,70.5C 166.167,69.8333 166.833,69.1667 167.5,68.5C 183.458,66.471 199.458,66.1377 215.5,67.5C 215.709,68.086 216.043,68.586 216.5,69C 214.278,69.6946 212.111,70.5279 210,71.5C 207.436,70.4229 206.936,71.2562 208.5,74C 213.087,74.7991 217.587,74.6324 222,73.5C 222.309,74.7659 222.809,75.9326 223.5,77C 226,77.8854 228.333,79.0521 230.5,80.5C 231.325,84.1224 231.825,87.789 232,91.5C 234.614,95.0306 238.114,96.5306 242.5,96C 243.406,94.3005 243.739,92.4672 243.5,90.5C 244.978,90.238 246.311,90.5713 247.5,91.5C 248.074,93.0589 248.74,94.5589 249.5,96C 247.586,100.858 246.919,106.025 247.5,111.5C 250.579,111.26 253.579,111.593 256.5,112.5C 257.494,117.456 257.827,122.456 257.5,127.5C 259.5,127.5 261.5,127.5 263.5,127.5C 263.832,154.203 263.165,180.869 261.5,207.5C 259.5,207.5 257.5,207.5 255.5,207.5C 255.666,212.511 255.499,217.511 255,222.5C 252.619,223.435 250.119,223.768 247.5,223.5C 246.833,228.167 244.167,230.833 239.5,231.5C 241.167,238.5 238.5,241.167 231.5,239.5C 230.833,244.167 228.167,246.833 223.5,247.5C 223.953,250.652 222.953,253.152 220.5,255C 216.5,255.333 212.5,255.667 208.5,256C 207.594,257.699 207.261,259.533 207.5,261.5C 202.025,262.081 196.858,261.414 192,259.5C 189.4,260.084 186.567,260.75 183.5,261.5C 183.351,260.448 183.517,259.448 184,258.5C 186.343,257.873 188.51,256.873 190.5,255.5C 193.208,251.803 195.875,248.136 198.5,244.5 Z"/></g>
<g><path style="opacity:1" fill="#6e95d3" d="M 165.5,68.5 C 166.167,68.5 166.833,68.5 167.5,68.5C 166.833,69.1667 166.167,69.8333 165.5,70.5C 159.605,72.4257 153.938,74.759 148.5,77.5C 153.291,73.0231 158.957,70.0231 165.5,68.5 Z"/></g>
<g><path style="opacity:1" fill="#6f93cd" d="M 79.5,68.5 C 77.1667,71.5 74.5,74.1667 71.5,76.5C 73.1667,72.8333 75.8333,70.1667 79.5,68.5 Z"/></g>
<g><path style="opacity:1" fill="#e5eefd" d="M 165.5,70.5 C 167.857,70.3367 170.19,70.5034 172.5,71C 172.167,71.3333 171.833,71.6667 171.5,72C 174.276,72.0657 176.442,73.2324 178,75.5C 181.044,74.4276 183.711,75.0943 186,77.5C 186.333,77.1667 186.667,76.8333 187,76.5C 187.483,77.448 187.649,78.448 187.5,79.5C 190.247,79.1866 192.914,79.52 195.5,80.5C 199.04,83.1153 203.04,84.1153 207.5,83.5C 207.5,84.8333 207.5,86.1667 207.5,87.5C 209.527,87.3379 211.527,87.5045 213.5,88C 215.148,92.8144 218.481,95.6477 223.5,96.5C 226.826,100.658 230.659,104.325 235,107.5C 238.231,110.882 239.731,114.882 239.5,119.5C 240.833,119.5 242.167,119.5 243.5,119.5C 243.798,122.265 244.798,124.765 246.5,127C 244.167,127.333 241.833,127.667 239.5,128C 242.334,132.15 244.501,136.65 246,141.5C 246.333,141.833 246.667,142.167 247,142.5C 247.28,133.614 248.946,133.28 252,141.5C 252.667,156.167 252.667,170.833 252,185.5C 250.509,190.491 248.009,194.824 244.5,198.5C 244.709,199.086 245.043,199.586 245.5,200C 244.219,202.403 242.386,204.237 240,205.5C 239.884,208.932 238.717,211.932 236.5,214.5C 236.709,215.086 237.043,215.586 237.5,216C 233.367,222.705 231.367,222.538 231.5,215.5C 226.77,215.904 224.436,218.571 224.5,223.5C 226.199,223.34 227.866,223.506 229.5,224C 228.274,225.635 226.941,227.135 225.5,228.5C 224.316,226.954 223.316,225.287 222.5,223.5C 221.682,226.107 221.182,228.774 221,231.5C 220.009,232.939 218.676,233.939 217,234.5C 218.126,236.95 217.459,238.95 215,240.5C 214.837,238.324 214.004,236.491 212.5,235C 212.833,234.667 213.167,234.333 213.5,234C 212.451,233.508 211.451,233.674 210.5,234.5C 209.935,236.51 208.935,238.176 207.5,239.5C 207.057,237.713 206.724,236.046 206.5,234.5C 207.312,232.055 208.312,229.722 209.5,227.5C 209.788,224.061 210.454,220.728 211.5,217.5C 211.833,217.5 212.167,217.5 212.5,217.5C 212.441,222.212 212.941,226.879 214,231.5C 214.45,229.481 215.283,227.648 216.5,226C 215.476,224.633 215.976,223.8 218,223.5C 220.107,224.657 221.274,223.824 221.5,221C 221.355,220.228 221.022,219.561 220.5,219C 228.202,208.327 235.368,197.16 242,185.5C 242.819,173.614 243.319,161.781 243.5,150C 242.764,147.861 241.764,145.861 240.5,144C 241.308,143.692 241.975,143.192 242.5,142.5C 238.303,136.782 235.136,130.448 233,123.5C 230.333,120.172 228.167,116.506 226.5,112.5C 223.358,111.218 222.025,108.885 222.5,105.5C 221.127,105.657 219.793,105.49 218.5,105C 215.358,102.096 211.691,100.262 207.5,99.5C 207.5,98.1667 207.5,96.8333 207.5,95.5C 204.411,95.0938 201.745,93.7605 199.5,91.5C 195.878,90.6747 192.211,90.1747 188.5,90C 184.4,87.8519 180.067,86.3519 175.5,85.5C 175.762,84.0222 175.429,82.6888 174.5,81.5C 172.633,82.7973 172.3,84.2973 173.5,86C 172.37,87.7601 171.37,89.5934 170.5,91.5C 169.24,89.6471 169.24,87.8138 170.5,86C 169.792,83.4114 168.459,81.2447 166.5,79.5C 166.245,81.3435 166.078,83.3435 166,85.5C 165.667,85.1667 165.333,84.8333 165,84.5C 164.667,85.5 164.333,86.5 164,87.5C 159.948,91.2237 155.781,93.8904 151.5,95.5C 153.122,92.5451 155.122,89.8785 157.5,87.5C 159.624,86.9688 161.124,85.6355 162,83.5C 162.591,82.5165 162.257,81.8499 161,81.5C 156.133,82.6809 151.967,85.0142 148.5,88.5C 143.297,91.3561 138.631,95.0228 134.5,99.5C 131.663,101.992 129.663,104.992 128.5,108.5C 125.863,110.482 124.53,113.148 124.5,116.5C 123.115,117.574 121.949,118.907 121,120.5C 116.479,130.335 114.312,140.668 114.5,151.5C 116.806,151.007 119.139,150.674 121.5,150.5C 134.015,146.353 146.682,144.687 159.5,145.5C 154.938,145.481 150.604,146.314 146.5,148C 150.084,149.073 153.75,149.74 157.5,150C 151.513,150.848 145.68,150.348 140,148.5C 139.586,148.957 139.086,149.291 138.5,149.5C 136.365,146.922 134.365,147.088 132.5,150C 133.167,151.333 134.167,152.333 135.5,153C 131.576,153.26 127.909,154.26 124.5,156C 125.025,156.692 125.692,157.192 126.5,157.5C 127.869,155.876 129.536,155.376 131.5,156C 129.068,157.087 129.402,157.587 132.5,157.5C 126.961,158.903 121.628,160.903 116.5,163.5C 113.194,164.444 109.861,165.444 106.5,166.5C 105.191,164.429 104.525,161.929 104.5,159C 104.876,153.831 105.209,148.665 105.5,143.5C 105.5,142.833 105.5,142.167 105.5,141.5C 108.217,132.042 111.55,122.709 115.5,113.5C 116.045,111.407 116.878,109.407 118,107.5C 119.852,105.043 121.686,102.709 123.5,100.5C 128.965,95.5364 134.298,90.3697 139.5,85C 143.222,83.451 146.222,80.951 148.5,77.5C 153.938,74.759 159.605,72.4257 165.5,70.5 Z"/></g>
<g><path style="opacity:1" fill="#2860bd" d="M 199.5,173.5 C 201.062,173.733 202.395,174.4 203.5,175.5C 205.25,176.659 206.25,178.326 206.5,180.5C 206.357,182.262 206.691,183.929 207.5,185.5C 206.14,187.981 205.14,187.648 204.5,184.5C 203.998,183.479 203.332,183.312 202.5,184C 201.88,186.473 201.214,188.973 200.5,191.5C 199.914,191.709 199.414,192.043 199,192.5C 198.995,189.771 197.829,187.771 195.5,186.5C 193.717,188.023 193.051,190.023 193.5,192.5C 194.873,192.343 196.207,192.51 197.5,193C 196.044,194.745 194.711,196.578 193.5,198.5C 188.319,202.186 183.652,206.353 179.5,211C 168.45,217.907 156.617,223.074 144,226.5C 128.377,226.115 113.543,222.615 99.5,216C 96.9568,215.86 94.6234,215.194 92.5,214C 93.5,213.667 94.5,213.333 95.5,213C 92.7336,211.533 90.2336,209.7 88,207.5C 87.5172,206.552 87.3505,205.552 87.5,204.5C 85.6916,204.509 84.0249,204.009 82.5,203C 81.6242,200.624 79.9575,199.124 77.5,198.5C 74.2806,193.103 70.4472,188.103 66,183.5C 55.2876,160.902 52.4543,137.235 57.5,112.5C 58.8333,112.5 60.1667,112.5 61.5,112.5C 61.8395,110.009 62.8395,107.842 64.5,106C 64.3333,105.167 64.1667,104.333 64,103.5C 63.3333,102.167 62.6667,102.167 62,103.5C 61.9024,105.619 61.0691,107.286 59.5,108.5C 58.3977,105.81 58.5644,103.143 60,100.5C 61.8129,98.2387 63.3129,95.9053 64.5,93.5C 63.5,93.5 62.5,93.5 61.5,93.5C 61.3398,91.8008 61.5065,90.1341 62,88.5C 65.136,86.6805 68.136,84.6805 71,82.5C 71.2163,80.6161 71.883,78.9494 73,77.5C 74.1545,78.7433 75.4878,79.7433 77,80.5C 78.3513,78.981 79.8513,77.6477 81.5,76.5C 82.747,78.0444 84.0804,79.5444 85.5,81C 80.7844,85.0489 76.4511,89.3822 72.5,94C 75.112,95.9828 74.9453,97.8161 72,99.5C 71.2929,106.344 69.4596,112.844 66.5,119C 65.363,130.156 65.363,141.322 66.5,152.5C 68.4132,160.2 70.0798,167.866 71.5,175.5C 72.9778,175.238 74.3112,175.571 75.5,176.5C 78.1971,181.454 80.5305,186.454 82.5,191.5C 84.288,191.215 85.9547,191.548 87.5,192.5C 92.013,196.94 96.3463,201.607 100.5,206.5C 103.107,207.318 105.774,207.818 108.5,208C 110.768,210.29 113.435,211.956 116.5,213C 129.167,213.667 141.833,213.667 154.5,213C 156.025,211.991 157.692,211.491 159.5,211.5C 159.5,210.167 159.5,208.833 159.5,207.5C 162.187,207.664 164.854,207.497 167.5,207C 169.818,205.007 172.484,203.841 175.5,203.5C 175.343,202.127 175.51,200.793 176,199.5C 178.482,198.002 180.982,196.502 183.5,195C 186.436,190.61 189.936,186.777 194,183.5C 196.238,180.349 195.404,178.182 191.5,177C 193.5,176.333 194.833,175 195.5,173C 196.928,172.421 198.262,172.588 199.5,173.5 Z"/></g>
<g><path style="opacity:1" fill="#e9f0fc" d="M 212.5,217.5 C 213.752,209.359 213.752,201.359 212.5,193.5C 210.723,190.495 209.723,187.162 209.5,183.5C 210.265,183.923 211.098,184.257 212,184.5C 214.07,182.037 215.903,179.371 217.5,176.5C 217.833,177 218.167,177.5 218.5,178C 217.014,182.368 216.181,186.868 216,191.5C 215.667,190.167 215.333,188.833 215,187.5C 214.13,188.108 213.63,188.941 213.5,190C 214.287,192.099 214.62,194.266 214.5,196.5C 217.232,194.965 219.898,193.131 222.5,191C 219.707,186.687 219.873,182.52 223,178.5C 222.746,170.815 222.913,163.149 223.5,155.5C 221.199,151.931 219.866,147.931 219.5,143.5C 218.167,143.5 216.833,143.5 215.5,143.5C 215.697,138.026 215.031,132.692 213.5,127.5C 211.5,127.5 209.5,127.5 207.5,127.5C 207.762,126.022 207.429,124.689 206.5,123.5C 202.518,119.266 198.351,115.266 194,111.5C 192.045,114.707 189.545,115.207 186.5,113C 187.376,110.624 189.042,109.124 191.5,108.5C 191.167,107.5 190.5,106.833 189.5,106.5C 186.028,107.157 182.861,108.49 180,110.5C 177.837,110.505 176.337,109.505 175.5,107.5C 170.825,110.843 165.825,113.51 160.5,115.5C 161.29,114.206 162.29,113.039 163.5,112C 168.631,109.035 173.631,105.869 178.5,102.5C 179.478,102.189 180.145,101.522 180.5,100.5C 175.167,99.5156 169.834,99.6823 164.5,101C 162.509,101.374 160.842,102.207 159.5,103.5C 155.327,103.667 151.66,105 148.5,107.5C 147.033,108.292 145.7,108.292 144.5,107.5C 145.788,105.261 146.788,102.928 147.5,100.5C 149.543,99.4206 150.876,97.754 151.5,95.5C 155.781,93.8904 159.948,91.2237 164,87.5C 164.333,86.5 164.667,85.5 165,84.5C 165.333,84.8333 165.667,85.1667 166,85.5C 166.078,83.3435 166.245,81.3435 166.5,79.5C 168.459,81.2447 169.792,83.4114 170.5,86C 169.24,87.8138 169.24,89.6471 170.5,91.5C 171.37,89.5934 172.37,87.7601 173.5,86C 172.3,84.2973 172.633,82.7973 174.5,81.5C 175.429,82.6888 175.762,84.0222 175.5,85.5C 180.067,86.3519 184.4,87.8519 188.5,90C 192.211,90.1747 195.878,90.6747 199.5,91.5C 201.745,93.7605 204.411,95.0938 207.5,95.5C 207.5,96.8333 207.5,98.1667 207.5,99.5C 211.691,100.262 215.358,102.096 218.5,105C 219.793,105.49 221.127,105.657 222.5,105.5C 222.025,108.885 223.358,111.218 226.5,112.5C 228.167,116.506 230.333,120.172 233,123.5C 235.136,130.448 238.303,136.782 242.5,142.5C 241.975,143.192 241.308,143.692 240.5,144C 241.764,145.861 242.764,147.861 243.5,150C 243.319,161.781 242.819,173.614 242,185.5C 235.368,197.16 228.202,208.327 220.5,219C 221.022,219.561 221.355,220.228 221.5,221C 221.274,223.824 220.107,224.657 218,223.5C 215.976,223.8 215.476,224.633 216.5,226C 215.283,227.648 214.45,229.481 214,231.5C 212.941,226.879 212.441,222.212 212.5,217.5 Z"/></g>
<g><path style="opacity:1" fill="#3a75d6" d="M 140.5,82.5 C 134.136,87.8636 128.469,93.8636 123.5,100.5C 121.686,102.709 119.852,105.043 118,107.5C 116.878,109.407 116.045,111.407 115.5,113.5C 113.896,114.287 113.229,115.62 113.5,117.5C 111.408,117.561 109.908,118.561 109,120.5C 107.424,127.35 106.258,134.35 105.5,141.5C 105.5,142.167 105.5,142.833 105.5,143.5C 103.731,151.257 103.065,159.257 103.5,167.5C 104.791,167.737 105.791,167.404 106.5,166.5C 109.861,165.444 113.194,164.444 116.5,163.5C 123.309,161.672 129.975,159.672 136.5,157.5C 136.833,157.5 137.167,157.5 137.5,157.5C 144.837,156.928 152.17,156.262 159.5,155.5C 162.551,155.598 165.551,155.931 168.5,156.5C 171.452,158.41 174.786,159.41 178.5,159.5C 178.918,160.222 179.584,160.722 180.5,161C 179.095,162.269 177.429,162.769 175.5,162.5C 170.22,176.339 160.22,184.839 145.5,188C 129.866,191.778 116.199,188.278 104.5,177.5C 104.167,176.167 103.833,174.833 103.5,173.5C 101.833,172.833 100.167,172.167 98.5,171.5C 97.5197,170.019 96.353,168.685 95,167.5C 89.263,154.663 87.0964,141.33 88.5,127.5C 89.6746,122.613 91.0079,117.78 92.5,113C 93.0104,111.174 93.8438,111.007 95,112.5C 95.3333,109.5 95.6667,106.5 96,103.5C 97.016,102.366 97.6827,102.699 98,104.5C 100.04,99.1239 103.873,95.9572 109.5,95C 111.037,93.8904 111.703,92.3904 111.5,90.5C 113.973,90.2009 116.14,89.2009 118,87.5C 118.772,87.6448 119.439,87.9781 120,88.5C 123.415,85.2965 127.248,84.2965 131.5,85.5C 131.833,89.5 132.167,89.5 132.5,85.5C 134.745,83.6386 137.412,82.6386 140.5,82.5 Z"/></g>
<g><path style="opacity:1" fill="#6f92cf" d="M 157.5,87.5 C 155.874,84.9216 154.208,85.0883 152.5,88C 151.207,88.49 149.873,88.6567 148.5,88.5C 151.967,85.0142 156.133,82.6809 161,81.5C 162.257,81.8499 162.591,82.5165 162,83.5C 161.124,85.6355 159.624,86.9688 157.5,87.5 Z"/></g>
<g><path style="opacity:1" fill="#dce8fb" d="M 207.5,64.5 C 214.987,65.9088 222.321,67.9088 229.5,70.5C 240.819,75.5033 250.819,82.5033 259.5,91.5C 260.588,93.5825 261.588,95.7492 262.5,98C 262.167,98.3333 261.833,98.6667 261.5,99C 264.858,101.203 267.191,104.203 268.5,108C 269.901,108.41 271.234,108.91 272.5,109.5C 272.963,112.482 273.296,115.482 273.5,118.5C 274.5,118.5 275.5,118.5 276.5,118.5C 276.851,121.238 277.518,123.904 278.5,126.5C 277.654,129.548 276.654,132.548 275.5,135.5C 276.628,136.262 277.795,136.929 279,137.5C 279.333,135.5 279.667,133.5 280,131.5C 283.306,135.657 283.806,139.99 281.5,144.5C 282.557,144.906 283.891,144.906 285.5,144.5C 285.433,146.401 285.767,148.234 286.5,150C 283.341,157.9 282.674,166.733 284.5,176.5C 282.612,180.832 280.946,184.998 279.5,189C 279.684,190.376 280.351,191.209 281.5,191.5C 281.223,194.448 281.556,197.281 282.5,200C 282,200.5 281.5,201 281,201.5C 280.667,198.5 280.333,195.5 280,192.5C 279.581,193.672 278.915,194.672 278,195.5C 278.018,199.331 277.852,203.331 277.5,207.5C 276.178,207.33 275.011,207.663 274,208.5C 273.667,213.5 273.333,218.5 273,223.5C 271.026,223.626 268.859,223.792 266.5,224C 265.667,224.833 264.833,225.667 264,226.5C 264.816,234.193 262.316,240.526 256.5,245.5C 254.564,243.022 252.564,243.022 250.5,245.5C 248.423,246.988 247.423,248.988 247.5,251.5C 244.5,251.167 243.167,252.5 243.5,255.5C 242.167,255.5 240.833,255.5 239.5,255.5C 239.953,258.652 238.953,261.152 236.5,263C 233.167,263.333 229.833,263.667 226.5,264C 224.149,266.564 221.315,268.397 218,269.5C 217.833,269.833 217.667,270.167 217.5,270.5C 219.766,271.314 222.1,271.814 224.5,272C 218.914,273.217 213.248,274.05 207.5,274.5C 207.5,275.5 207.5,276.5 207.5,277.5C 193.971,278.216 180.638,280.216 167.5,283.5C 159.548,282.172 151.548,281.506 143.5,281.5C 143.762,282.978 143.429,284.311 142.5,285.5C 137.841,283.03 132.841,281.863 127.5,282C 129.433,281.749 131.266,281.249 133,280.5C 135.369,280.323 137.869,280.656 140.5,281.5C 141.696,281.154 141.696,280.654 140.5,280C 145.464,279.58 145.631,278.747 141,277.5C 132.032,277.466 123.365,278.133 115,279.5C 110.496,277.769 110.663,276.103 115.5,274.5C 117.655,276.006 119.988,277.006 122.5,277.5C 127.192,277.013 131.859,276.346 136.5,275.5C 147.168,272.767 157.835,270.267 168.5,268C 169.252,267.329 169.586,266.496 169.5,265.5C 174.715,262.249 180.048,259.082 185.5,256C 188.666,254 191.332,251.5 193.5,248.5C 195.167,247.167 196.833,245.833 198.5,244.5C 195.875,248.136 193.208,251.803 190.5,255.5C 188.51,256.873 186.343,257.873 184,258.5C 183.517,259.448 183.351,260.448 183.5,261.5C 186.567,260.75 189.4,260.084 192,259.5C 196.858,261.414 202.025,262.081 207.5,261.5C 207.261,259.533 207.594,257.699 208.5,256C 212.5,255.667 216.5,255.333 220.5,255C 222.953,253.152 223.953,250.652 223.5,247.5C 228.167,246.833 230.833,244.167 231.5,239.5C 238.5,241.167 241.167,238.5 239.5,231.5C 244.167,230.833 246.833,228.167 247.5,223.5C 250.119,223.768 252.619,223.435 255,222.5C 255.499,217.511 255.666,212.511 255.5,207.5C 257.5,207.5 259.5,207.5 261.5,207.5C 263.165,180.869 263.832,154.203 263.5,127.5C 261.5,127.5 259.5,127.5 257.5,127.5C 257.827,122.456 257.494,117.456 256.5,112.5C 253.579,111.593 250.579,111.26 247.5,111.5C 246.919,106.025 247.586,100.858 249.5,96C 248.74,94.5589 248.074,93.0589 247.5,91.5C 246.311,90.5713 244.978,90.238 243.5,90.5C 243.739,92.4672 243.406,94.3005 242.5,96C 238.114,96.5306 234.614,95.0306 232,91.5C 231.825,87.789 231.325,84.1224 230.5,80.5C 228.333,79.0521 226,77.8854 223.5,77C 222.809,75.9326 222.309,74.7659 222,73.5C 217.587,74.6324 213.087,74.7991 208.5,74C 206.936,71.2562 207.436,70.4229 210,71.5C 212.111,70.5279 214.278,69.6946 216.5,69C 216.043,68.586 215.709,68.086 215.5,67.5C 199.458,66.1377 183.458,66.471 167.5,68.5C 169.905,67.2318 172.572,66.5651 175.5,66.5C 186.029,64.6576 196.695,63.9909 207.5,64.5 Z"/></g>
<g><path style="opacity:1" fill="#5577b2" d="M 264.5,84.5 C 266.587,85.5846 267.92,87.2512 268.5,89.5C 266.413,88.4154 265.08,86.7488 264.5,84.5 Z"/></g>
<g><path style="opacity:1" fill="#b0caf4" d="M 148.5,77.5 C 146.222,80.951 143.222,83.451 139.5,85C 134.298,90.3697 128.965,95.5364 123.5,100.5C 128.469,93.8636 134.136,87.8636 140.5,82.5C 141.626,80.4637 143.293,79.1303 145.5,78.5C 146.391,77.8902 147.391,77.5569 148.5,77.5 Z"/></g>
<g><path style="opacity:1" fill="#316cca" d="M 145.5,78.5 C 143.293,79.1303 141.626,80.4637 140.5,82.5C 137.412,82.6386 134.745,83.6386 132.5,85.5C 132.167,89.5 131.833,89.5 131.5,85.5C 127.248,84.2965 123.415,85.2965 120,88.5C 119.439,87.9781 118.772,87.6448 118,87.5C 116.14,89.2009 113.973,90.2009 111.5,90.5C 111.703,92.3904 111.037,93.8904 109.5,95C 103.873,95.9572 100.04,99.1239 98,104.5C 97.6827,102.699 97.016,102.366 96,103.5C 95.6667,106.5 95.3333,109.5 95,112.5C 93.8438,111.007 93.0104,111.174 92.5,113C 91.0079,117.78 89.6746,122.613 88.5,127.5C 87.0964,141.33 89.263,154.663 95,167.5C 96.353,168.685 97.5197,170.019 98.5,171.5C 100.167,172.167 101.833,172.833 103.5,173.5C 103.833,174.833 104.167,176.167 104.5,177.5C 116.199,188.278 129.866,191.778 145.5,188C 160.22,184.839 170.22,176.339 175.5,162.5C 177.429,162.769 179.095,162.269 180.5,161C 179.584,160.722 178.918,160.222 178.5,159.5C 182.686,160.678 186.686,162.345 190.5,164.5C 187.869,166.005 188.203,166.671 191.5,166.5C 191.5,167.5 191.5,168.5 191.5,169.5C 188.973,169.647 186.307,169.98 183.5,170.5C 182.833,171.167 182.167,171.833 181.5,172.5C 183.124,173.869 183.624,175.536 183,177.5C 160.435,205.514 133.601,210.847 102.5,193.5C 79.1881,173.859 70.6881,148.859 77,118.5C 81.0314,112.767 83.698,106.434 85,99.5C 88.208,95.9565 91.0413,92.1232 93.5,88C 99.0571,83.2923 104.89,79.1256 111,75.5C 112.364,76.2583 113.531,75.7583 114.5,74C 121.327,72.7929 127.994,70.9596 134.5,68.5C 137.109,69.2305 139.776,69.7305 142.5,70C 144.5,71.6667 146.5,73.3333 148.5,75C 146.744,75.2022 145.078,75.7022 143.5,76.5C 144.243,77.1818 144.909,77.8485 145.5,78.5 Z"/></g>
<g><path style="opacity:1" fill="#789edd" d="M 148.5,88.5 C 141.373,94.9601 134.706,101.627 128.5,108.5C 129.663,104.992 131.663,101.992 134.5,99.5C 138.631,95.0228 143.297,91.3561 148.5,88.5 Z"/></g>
<g><path style="opacity:1" fill="#96b2e9" d="M 151.5,95.5 C 150.876,97.754 149.543,99.4206 147.5,100.5C 148.136,98.2054 149.469,96.5387 151.5,95.5 Z"/></g>
<g><path style="opacity:1" fill="#b5cbf0" d="M 259.5,91.5 C 264.81,96.7846 269.144,102.785 272.5,109.5C 271.234,108.91 269.901,108.41 268.5,108C 267.191,104.203 264.858,101.203 261.5,99C 261.833,98.6667 262.167,98.3333 262.5,98C 261.588,95.7492 260.588,93.5825 259.5,91.5 Z"/></g>
<g><path style="opacity:1" fill="#9db8e6" d="M 178.5,102.5 C 178.03,101.307 177.03,100.64 175.5,100.5C 170.057,101.133 164.724,102.133 159.5,103.5C 160.842,102.207 162.509,101.374 164.5,101C 169.834,99.6823 175.167,99.5156 180.5,100.5C 180.145,101.522 179.478,102.189 178.5,102.5 Z"/></g>
<g><path style="opacity:1" fill="#487cd4" d="M 147.5,100.5 C 146.788,102.928 145.788,105.261 144.5,107.5C 145.7,108.292 147.033,108.292 148.5,107.5C 152.533,106.975 156.2,105.642 159.5,103.5C 164.724,102.133 170.057,101.133 175.5,100.5C 177.03,100.64 178.03,101.307 178.5,102.5C 173.631,105.869 168.631,109.035 163.5,112C 162.29,113.039 161.29,114.206 160.5,115.5C 158.264,116.389 156.264,117.722 154.5,119.5C 155.325,120.386 156.325,120.719 157.5,120.5C 164.937,120.221 172.27,120.888 179.5,122.5C 180.289,122.783 180.956,123.283 181.5,124C 180.09,125.372 178.423,126.205 176.5,126.5C 177.85,125.176 177.683,124.176 176,123.5C 174.441,124.029 172.941,124.696 171.5,125.5C 169.729,124.965 169.396,124.131 170.5,123C 165.156,121.273 159.823,121.44 154.5,123.5C 151.511,123.199 150.178,121.532 150.5,118.5C 151.5,118.5 152.5,118.5 153.5,118.5C 153.67,117.178 153.337,116.011 152.5,115C 150.187,114.338 147.854,113.838 145.5,113.5C 145.5,112.5 145.5,111.5 145.5,110.5C 144.5,110.5 143.5,110.5 142.5,110.5C 142.481,106.648 143.314,102.981 145,99.5C 145.671,100.252 146.504,100.586 147.5,100.5 Z"/></g>
<g><path style="opacity:1" fill="#8babe3" d="M 159.5,103.5 C 156.2,105.642 152.533,106.975 148.5,107.5C 151.66,105 155.327,103.667 159.5,103.5 Z"/></g>
<g><path style="opacity:1" fill="#eff5fd" d="M 209.5,183.5 C 208.272,182.694 207.272,181.694 206.5,180.5C 206.25,178.326 205.25,176.659 203.5,175.5C 203.631,174.761 203.464,174.094 203,173.5C 198.867,170.369 195.034,166.869 191.5,163C 188.113,160.815 184.446,159.315 180.5,158.5C 179.833,157.833 179.167,157.167 178.5,156.5C 181.682,156.573 184.682,157.073 187.5,158C 186.167,157 186.167,156 187.5,155C 186.833,154.667 186.167,154.333 185.5,154C 181.713,153.84 178.046,153.174 174.5,152C 176.764,151.764 178.931,151.264 181,150.5C 186.744,152.289 188.411,149.956 186,143.5C 184.312,144.325 184.145,145.325 185.5,146.5C 181.711,148.421 177.711,148.921 173.5,148C 172.619,147.292 171.953,146.458 171.5,145.5C 174.176,146.008 176.843,146.175 179.5,146C 175.298,140.735 169.965,137.235 163.5,135.5C 163.297,133.61 163.963,132.11 165.5,131C 169.27,130.278 172.603,128.778 175.5,126.5C 175.833,126.5 176.167,126.5 176.5,126.5C 178.423,126.205 180.09,125.372 181.5,124C 180.956,123.283 180.289,122.783 179.5,122.5C 177.438,121.224 175.104,120.39 172.5,120C 167.316,119.184 162.316,119.35 157.5,120.5C 156.325,120.719 155.325,120.386 154.5,119.5C 156.264,117.722 158.264,116.389 160.5,115.5C 165.825,113.51 170.825,110.843 175.5,107.5C 176.337,109.505 177.837,110.505 180,110.5C 182.861,108.49 186.028,107.157 189.5,106.5C 190.5,106.833 191.167,107.5 191.5,108.5C 189.042,109.124 187.376,110.624 186.5,113C 189.545,115.207 192.045,114.707 194,111.5C 198.351,115.266 202.518,119.266 206.5,123.5C 207.429,124.689 207.762,126.022 207.5,127.5C 209.5,127.5 211.5,127.5 213.5,127.5C 215.031,132.692 215.697,138.026 215.5,143.5C 216.833,143.5 218.167,143.5 219.5,143.5C 219.866,147.931 221.199,151.931 223.5,155.5C 222.913,163.149 222.746,170.815 223,178.5C 219.873,182.52 219.707,186.687 222.5,191C 219.898,193.131 217.232,194.965 214.5,196.5C 214.62,194.266 214.287,192.099 213.5,190C 213.63,188.941 214.13,188.108 215,187.5C 215.333,188.833 215.667,190.167 216,191.5C 216.181,186.868 217.014,182.368 218.5,178C 218.167,177.5 217.833,177 217.5,176.5C 215.903,179.371 214.07,182.037 212,184.5C 211.098,184.257 210.265,183.923 209.5,183.5 Z"/></g>
<g><path style="opacity:1" fill="#245ab4" d="M 61.5,93.5 C 62.5,93.5 63.5,93.5 64.5,93.5C 63.3129,95.9053 61.8129,98.2387 60,100.5C 58.5644,103.143 58.3977,105.81 59.5,108.5C 61.0691,107.286 61.9024,105.619 62,103.5C 62.6667,102.167 63.3333,102.167 64,103.5C 64.1667,104.333 64.3333,105.167 64.5,106C 62.8395,107.842 61.8395,110.009 61.5,112.5C 60.1667,112.5 58.8333,112.5 57.5,112.5C 52.4543,137.235 55.2876,160.902 66,183.5C 70.4472,188.103 74.2806,193.103 77.5,198.5C 79.9575,199.124 81.6242,200.624 82.5,203C 84.0249,204.009 85.6916,204.509 87.5,204.5C 87.3505,205.552 87.5172,206.552 88,207.5C 90.2336,209.7 92.7336,211.533 95.5,213C 94.5,213.333 93.5,213.667 92.5,214C 94.6234,215.194 96.9568,215.86 99.5,216C 113.543,222.615 128.377,226.115 144,226.5C 156.617,223.074 168.45,217.907 179.5,211C 183.652,206.353 188.319,202.186 193.5,198.5C 194.711,196.578 196.044,194.745 197.5,193C 196.207,192.51 194.873,192.343 193.5,192.5C 193.051,190.023 193.717,188.023 195.5,186.5C 197.829,187.771 198.995,189.771 199,192.5C 199.414,192.043 199.914,191.709 200.5,191.5C 201.214,188.973 201.88,186.473 202.5,184C 203.332,183.312 203.998,183.479 204.5,184.5C 205.14,187.648 206.14,187.981 207.5,185.5C 206.691,183.929 206.357,182.262 206.5,180.5C 207.272,181.694 208.272,182.694 209.5,183.5C 209.723,187.162 210.723,190.495 212.5,193.5C 212.824,200.354 212.491,207.021 211.5,213.5C 211.5,208.5 211.5,203.5 211.5,198.5C 210.178,198.67 209.011,198.337 208,197.5C 206.667,200.833 205.333,204.167 204,207.5C 203.667,207.167 203.333,206.833 203,206.5C 183.181,229.146 158.014,239.979 127.5,239C 118.009,236.96 108.675,234.293 99.5,231C 91.1751,226.17 83.1751,220.836 75.5,215C 71.5123,212.013 68.679,208.18 67,203.5C 62.2624,198.352 57.7624,193.019 53.5,187.5C 51.2195,184.16 49.7195,180.493 49,176.5C 47.9887,175.663 46.8221,175.33 45.5,175.5C 44.9735,162.371 44.1402,149.038 43,135.5C 42.5814,136.672 41.9147,137.672 41,138.5C 40.898,142.982 41.0646,147.482 41.5,152C 41.6269,156.214 40.9603,160.214 39.5,164C 40.3953,166.82 41.2286,169.654 42,172.5C 42.8893,171.112 43.3893,171.278 43.5,173C 41.53,179.015 40.53,185.182 40.5,191.5C 37.2237,181.216 35.8904,170.549 36.5,159.5C 36.8333,154.167 37.1667,148.833 37.5,143.5C 38.3808,137.994 39.7142,132.661 41.5,127.5C 43.2078,124.05 44.5412,120.383 45.5,116.5C 45.8976,113.576 47.231,111.242 49.5,109.5C 50.5862,109.38 51.2528,108.713 51.5,107.5C 52.4669,105.238 53.1336,102.905 53.5,100.5C 55.5,100.167 57.5,99.8333 59.5,99.5C 59.6138,97.2821 60.2804,95.2821 61.5,93.5 Z"/></g>
<g><path style="opacity:1" fill="#31559b" d="M 271.5,94.5 C 272.983,96.0938 274.483,97.7605 276,99.5C 276.779,103.307 278.446,106.64 281,109.5C 283.664,115.992 285.831,122.659 287.5,129.5C 286.685,128.571 285.852,127.571 285,126.5C 285.022,122.182 283.355,118.848 280,116.5C 279.444,118.885 279.61,121.218 280.5,123.5C 278.755,121.967 277.755,119.967 277.5,117.5C 279.326,115.545 279.826,113.212 279,110.5C 276.846,107.568 275.346,104.234 274.5,100.5C 273.914,100.709 273.414,101.043 273,101.5C 272.56,99.1341 272.06,96.8008 271.5,94.5 Z"/></g>
<g><path style="opacity:1" fill="#89abe1" d="M 45.5,116.5 C 44.5412,120.383 43.2078,124.05 41.5,127.5C 41.677,123.292 43.0103,119.626 45.5,116.5 Z"/></g>
<g><path style="opacity:1" fill="#a2beec" d="M 157.5,120.5 C 162.316,119.35 167.316,119.184 172.5,120C 175.104,120.39 177.438,121.224 179.5,122.5C 172.27,120.888 164.937,120.221 157.5,120.5 Z"/></g>
<g><path style="opacity:1" fill="#7098dd" d="M 115.5,113.5 C 111.55,122.709 108.217,132.042 105.5,141.5C 106.258,134.35 107.424,127.35 109,120.5C 109.908,118.561 111.408,117.561 113.5,117.5C 113.229,115.62 113.896,114.287 115.5,113.5 Z"/></g>
<g><path style="opacity:1" fill="#4685ea" d="M 140.5,144.5 C 135.477,145.393 130.477,146.393 125.5,147.5C 122.67,147.306 120.004,146.639 117.5,145.5C 119.029,138.44 120.363,131.274 121.5,124C 122.562,122.159 123.562,120.326 124.5,118.5C 125.117,118.389 125.617,118.056 126,117.5C 127.353,118.685 128.52,120.019 129.5,121.5C 133.912,118.677 138.078,119.011 142,122.5C 143.465,121.67 144.965,121.504 146.5,122C 147.792,126.779 149.459,131.446 151.5,136C 150.391,138.047 149.724,140.213 149.5,142.5C 145.988,141.945 142.988,142.612 140.5,144.5 Z"/></g>
<g><path style="opacity:1" fill="#417dde" d="M 157.5,87.5 C 155.122,89.8785 153.122,92.5451 151.5,95.5C 149.469,96.5387 148.136,98.2054 147.5,100.5C 146.504,100.586 145.671,100.252 145,99.5C 143.314,102.981 142.481,106.648 142.5,110.5C 143.5,110.5 144.5,110.5 145.5,110.5C 145.5,111.5 145.5,112.5 145.5,113.5C 147.854,113.838 150.187,114.338 152.5,115C 153.337,116.011 153.67,117.178 153.5,118.5C 152.5,118.5 151.5,118.5 150.5,118.5C 150.178,121.532 151.511,123.199 154.5,123.5C 159.823,121.44 165.156,121.273 170.5,123C 169.396,124.131 169.729,124.965 171.5,125.5C 172.941,124.696 174.441,124.029 176,123.5C 177.683,124.176 177.85,125.176 176.5,126.5C 176.167,126.5 175.833,126.5 175.5,126.5C 171.446,127.353 167.446,128.519 163.5,130C 162.196,130.804 161.529,131.971 161.5,133.5C 162.046,135.135 162.38,136.801 162.5,138.5C 167.522,138.677 171.855,140.51 175.5,144C 174.207,144.49 172.873,144.657 171.5,144.5C 161.171,143.197 150.838,143.197 140.5,144.5C 142.988,142.612 145.988,141.945 149.5,142.5C 149.724,140.213 150.391,138.047 151.5,136C 149.459,131.446 147.792,126.779 146.5,122C 144.965,121.504 143.465,121.67 142,122.5C 138.078,119.011 133.912,118.677 129.5,121.5C 128.52,120.019 127.353,118.685 126,117.5C 125.617,118.056 125.117,118.389 124.5,118.5C 124.5,117.833 124.5,117.167 124.5,116.5C 124.53,113.148 125.863,110.482 128.5,108.5C 134.706,101.627 141.373,94.9601 148.5,88.5C 149.873,88.6567 151.207,88.49 152.5,88C 154.208,85.0883 155.874,84.9216 157.5,87.5 Z"/></g>
<g><path style="opacity:1" fill="#174391" d="M 287.5,129.5 C 287.5,129.833 287.5,130.167 287.5,130.5C 288.372,134.454 289.038,138.454 289.5,142.5C 289.333,144.167 289.167,145.833 289,147.5C 288.722,146.584 288.222,145.918 287.5,145.5C 284.915,138.24 282.582,130.907 280.5,123.5C 279.61,121.218 279.444,118.885 280,116.5C 283.355,118.848 285.022,122.182 285,126.5C 285.852,127.571 286.685,128.571 287.5,129.5 Z"/></g>
<g><path style="opacity:1" fill="#5e8ddf" d="M 124.5,116.5 C 124.5,117.167 124.5,117.833 124.5,118.5C 123.562,120.326 122.562,122.159 121.5,124C 120.363,131.274 119.029,138.44 117.5,145.5C 120.004,146.639 122.67,147.306 125.5,147.5C 123.924,148.143 122.59,149.143 121.5,150.5C 119.139,150.674 116.806,151.007 114.5,151.5C 114.312,140.668 116.479,130.335 121,120.5C 121.949,118.907 123.115,117.574 124.5,116.5 Z"/></g>
<g><path style="opacity:1" fill="#628bd5" d="M 175.5,126.5 C 172.603,128.778 169.27,130.278 165.5,131C 163.963,132.11 163.297,133.61 163.5,135.5C 169.965,137.235 175.298,140.735 179.5,146C 176.843,146.175 174.176,146.008 171.5,145.5C 171.5,145.167 171.5,144.833 171.5,144.5C 172.873,144.657 174.207,144.49 175.5,144C 171.855,140.51 167.522,138.677 162.5,138.5C 162.38,136.801 162.046,135.135 161.5,133.5C 161.529,131.971 162.196,130.804 163.5,130C 167.446,128.519 171.446,127.353 175.5,126.5 Z"/></g>
<g><path style="opacity:1" fill="#9cbbf0" d="M 171.5,144.5 C 171.5,144.833 171.5,145.167 171.5,145.5C 167.5,145.5 163.5,145.5 159.5,145.5C 146.682,144.687 134.015,146.353 121.5,150.5C 122.59,149.143 123.924,148.143 125.5,147.5C 130.477,146.393 135.477,145.393 140.5,144.5C 150.838,143.197 161.171,143.197 171.5,144.5 Z"/></g>
<g><path style="opacity:1" fill="#4466a3" d="M 287.5,130.5 C 289.868,136.151 291.368,142.151 292,148.5C 292.5,157.494 292.666,166.494 292.5,175.5C 292.167,175.5 291.833,175.5 291.5,175.5C 291.666,167.493 291.5,159.493 291,151.5C 290.667,150.833 290.333,150.167 290,149.5C 289.502,152.817 289.335,156.15 289.5,159.5C 288.028,155.081 287.362,150.414 287.5,145.5C 288.222,145.918 288.722,146.584 289,147.5C 289.167,145.833 289.333,144.167 289.5,142.5C 289.038,138.454 288.372,134.454 287.5,130.5 Z"/></g>
<g><path style="opacity:1" fill="#f8fbfd" d="M 178.5,156.5 C 164.608,153.516 150.941,153.849 137.5,157.5C 137.167,157.5 136.833,157.5 136.5,157.5C 135.167,157.5 133.833,157.5 132.5,157.5C 129.402,157.587 129.068,157.087 131.5,156C 129.536,155.376 127.869,155.876 126.5,157.5C 125.692,157.192 125.025,156.692 124.5,156C 127.909,154.26 131.576,153.26 135.5,153C 134.167,152.333 133.167,151.333 132.5,150C 134.365,147.088 136.365,146.922 138.5,149.5C 139.086,149.291 139.586,148.957 140,148.5C 145.68,150.348 151.513,150.848 157.5,150C 153.75,149.74 150.084,149.073 146.5,148C 150.604,146.314 154.938,145.481 159.5,145.5C 163.5,145.5 167.5,145.5 171.5,145.5C 171.953,146.458 172.619,147.292 173.5,148C 177.711,148.921 181.711,148.421 185.5,146.5C 184.145,145.325 184.312,144.325 186,143.5C 188.411,149.956 186.744,152.289 181,150.5C 178.931,151.264 176.764,151.764 174.5,152C 178.046,153.174 181.713,153.84 185.5,154C 186.167,154.333 186.833,154.667 187.5,155C 186.167,156 186.167,157 187.5,158C 184.682,157.073 181.682,156.573 178.5,156.5 Z"/></g>
<g><path style="opacity:1" fill="#9cbaeb" d="M 178.5,156.5 C 179.167,157.167 179.833,157.833 180.5,158.5C 176.524,157.705 172.524,157.038 168.5,156.5C 165.551,155.931 162.551,155.598 159.5,155.5C 152.17,156.262 144.837,156.928 137.5,157.5C 150.941,153.849 164.608,153.516 178.5,156.5 Z"/></g>
<g><path style="opacity:1" fill="#204a90" d="M 291.5,175.5 C 291.5,177.167 291.5,178.833 291.5,180.5C 290.833,173.833 290.167,167.167 289.5,160.5C 289.5,160.167 289.5,159.833 289.5,159.5C 289.335,156.15 289.502,152.817 290,149.5C 290.333,150.167 290.667,150.833 291,151.5C 291.5,159.493 291.666,167.493 291.5,175.5 Z"/></g>
<g><path style="opacity:1" fill="#9bbdea" d="M 105.5,143.5 C 105.209,148.665 104.876,153.831 104.5,159C 104.525,161.929 105.191,164.429 106.5,166.5C 105.791,167.404 104.791,167.737 103.5,167.5C 103.065,159.257 103.731,151.257 105.5,143.5 Z"/></g>
<g><path style="opacity:1" fill="#8dafe8" d="M 132.5,157.5 C 133.833,157.5 135.167,157.5 136.5,157.5C 129.975,159.672 123.309,161.672 116.5,163.5C 121.628,160.903 126.961,158.903 132.5,157.5 Z"/></g>
<g><path style="opacity:0.967" fill="#b5c2db" d="M 318.5,132.5 C 322.442,149.398 323.108,166.398 320.5,183.5C 320.66,166.463 319.993,149.463 318.5,132.5 Z"/></g>
<g><path style="opacity:1" fill="#4975c3" d="M 168.5,156.5 C 172.524,157.038 176.524,157.705 180.5,158.5C 184.446,159.315 188.113,160.815 191.5,163C 195.034,166.869 198.867,170.369 203,173.5C 203.464,174.094 203.631,174.761 203.5,175.5C 202.395,174.4 201.062,173.733 199.5,173.5C 197.952,171.454 195.952,169.788 193.5,168.5C 192.817,168.863 192.15,169.196 191.5,169.5C 191.5,168.5 191.5,167.5 191.5,166.5C 188.203,166.671 187.869,166.005 190.5,164.5C 186.686,162.345 182.686,160.678 178.5,159.5C 174.786,159.41 171.452,158.41 168.5,156.5 Z"/></g>
<g><path style="opacity:1" fill="#1c53ac" d="M 211.5,213.5 C 211.5,214.833 211.5,216.167 211.5,217.5C 210.454,220.728 209.788,224.061 209.5,227.5C 206.759,229.975 204.759,232.975 203.5,236.5C 201.336,238.822 199.669,241.489 198.5,244.5C 196.833,245.833 195.167,247.167 193.5,248.5C 193.083,245.921 193.75,243.754 195.5,242C 194.5,241.667 193.5,241.333 192.5,241C 193.406,239.301 193.739,237.467 193.5,235.5C 188.384,235.77 184.717,238.27 182.5,243C 179.898,243.883 177.731,245.383 176,247.5C 175.326,246.422 174.326,245.755 173,245.5C 142.074,256.343 111.74,254.343 82,239.5C 80.6739,239.755 79.6739,240.422 79,241.5C 78.5,241 78,240.5 77.5,240C 79.5152,238.445 79.8485,236.611 78.5,234.5C 74.4982,231.496 70.8315,228.163 67.5,224.5C 65.8917,223.682 64.2251,223.015 62.5,222.5C 61.031,218.957 60.031,215.291 59.5,211.5C 57.6096,211.297 56.1096,211.963 55,213.5C 54.8047,211.793 54.8047,210.126 55,208.5C 52.397,206.975 49.897,205.975 47.5,205.5C 48.1753,202.511 47.8419,199.511 46.5,196.5C 45.3131,197.894 44.6465,197.727 44.5,196C 45.5877,193.061 45.2544,190.228 43.5,187.5C 42.9348,189.544 41.9348,191.21 40.5,192.5C 40.5,192.167 40.5,191.833 40.5,191.5C 40.53,185.182 41.53,179.015 43.5,173C 43.3893,171.278 42.8893,171.112 42,172.5C 41.2286,169.654 40.3953,166.82 39.5,164C 40.9603,160.214 41.6269,156.214 41.5,152C 41.0646,147.482 40.898,142.982 41,138.5C 41.9147,137.672 42.5814,136.672 43,135.5C 44.1402,149.038 44.9735,162.371 45.5,175.5C 46.8221,175.33 47.9887,175.663 49,176.5C 49.7195,180.493 51.2195,184.16 53.5,187.5C 57.7624,193.019 62.2624,198.352 67,203.5C 68.679,208.18 71.5123,212.013 75.5,215C 83.1751,220.836 91.1751,226.17 99.5,231C 108.675,234.293 118.009,236.96 127.5,239C 158.014,239.979 183.181,229.146 203,206.5C 203.333,206.833 203.667,207.167 204,207.5C 205.333,204.167 206.667,200.833 208,197.5C 209.011,198.337 210.178,198.67 211.5,198.5C 211.5,203.5 211.5,208.5 211.5,213.5 Z"/></g>
<g><path style="opacity:1" fill="#587bb2" d="M 289.5,160.5 C 290.167,167.167 290.833,173.833 291.5,180.5C 291.313,182.564 290.813,184.564 290,186.5C 289.517,185.552 289.351,184.552 289.5,183.5C 289.5,175.833 289.5,168.167 289.5,160.5 Z"/></g>
<g><path style="opacity:1" fill="#93abd0" d="M 291.5,175.5 C 291.833,175.5 292.167,175.5 292.5,175.5C 292.363,183.088 290.863,190.421 288,197.5C 287.693,192.635 288.193,187.969 289.5,183.5C 289.351,184.552 289.517,185.552 290,186.5C 290.813,184.564 291.313,182.564 291.5,180.5C 291.5,178.833 291.5,177.167 291.5,175.5 Z"/></g>
<g><path style="opacity:1" fill="#d6e4fb" d="M 54.5,229.5 C 57.8034,233.651 60.9701,237.985 64,242.5C 66.6965,245.694 69.8632,248.361 73.5,250.5C 78.5608,255.876 84.5608,260.043 91.5,263C 117.161,274.659 143.161,275.492 169.5,265.5C 169.586,266.496 169.252,267.329 168.5,268C 157.835,270.267 147.168,272.767 136.5,275.5C 131.859,276.346 127.192,277.013 122.5,277.5C 119.988,277.006 117.655,276.006 115.5,274.5C 110.663,276.103 110.496,277.769 115,279.5C 123.365,278.133 132.032,277.466 141,277.5C 145.631,278.747 145.464,279.58 140.5,280C 141.696,280.654 141.696,281.154 140.5,281.5C 137.869,280.656 135.369,280.323 133,280.5C 131.266,281.249 129.433,281.749 127.5,282C 132.841,281.863 137.841,283.03 142.5,285.5C 143.429,284.311 143.762,282.978 143.5,281.5C 151.548,281.506 159.548,282.172 167.5,283.5C 180.638,280.216 193.971,278.216 207.5,277.5C 207.5,276.5 207.5,275.5 207.5,274.5C 213.248,274.05 218.914,273.217 224.5,272C 222.1,271.814 219.766,271.314 217.5,270.5C 217.667,270.167 217.833,269.833 218,269.5C 221.315,268.397 224.149,266.564 226.5,264C 229.833,263.667 233.167,263.333 236.5,263C 238.953,261.152 239.953,258.652 239.5,255.5C 240.833,255.5 242.167,255.5 243.5,255.5C 243.167,252.5 244.5,251.167 247.5,251.5C 247.423,248.988 248.423,246.988 250.5,245.5C 252.564,243.022 254.564,243.022 256.5,245.5C 262.316,240.526 264.816,234.193 264,226.5C 264.833,225.667 265.667,224.833 266.5,224C 268.859,223.792 271.026,223.626 273,223.5C 273.333,218.5 273.667,213.5 274,208.5C 275.011,207.663 276.178,207.33 277.5,207.5C 277.852,203.331 278.018,199.331 278,195.5C 278.915,194.672 279.581,193.672 280,192.5C 280.333,195.5 280.667,198.5 281,201.5C 281.5,201 282,200.5 282.5,200C 281.556,197.281 281.223,194.448 281.5,191.5C 283.335,192.122 284.502,193.456 285,195.5C 285.182,198.226 285.682,200.893 286.5,203.5C 290.137,198.094 292.303,192.094 293,185.5C 293.495,187.473 293.662,189.473 293.5,191.5C 294.5,191.5 295.5,191.5 296.5,191.5C 296.337,189.143 296.503,186.81 297,184.5C 297.611,188.272 298.611,188.272 300,184.5C 300.148,178.06 300.982,171.726 302.5,165.5C 302.833,167.5 303.167,169.5 303.5,171.5C 302.57,176.799 301.903,182.133 301.5,187.5C 301.611,191.481 302.278,195.314 303.5,199C 303.05,200.285 302.383,201.452 301.5,202.5C 302.485,204.098 302.651,205.765 302,207.5C 299.973,207.014 297.807,207.014 295.5,207.5C 295.666,211.846 295.499,216.179 295,220.5C 292.815,223.887 291.315,227.554 290.5,231.5C 289.5,231.5 288.5,231.5 287.5,231.5C 287.754,236.749 285.254,239.749 280,240.5C 280.532,246.44 278.198,250.773 273,253.5C 272.598,254.872 272.098,256.205 271.5,257.5C 262.931,265.575 254.265,273.409 245.5,281C 243.527,281.495 241.527,281.662 239.5,281.5C 239.5,283.5 239.5,285.5 239.5,287.5C 234.489,287.334 229.489,287.501 224.5,288C 223.62,289.356 223.286,290.856 223.5,292.5C 221.124,294.159 218.457,295.493 215.5,296.5C 207.725,299.11 199.725,300.443 191.5,300.5C 191.5,301.5 191.5,302.5 191.5,303.5C 180.844,304.165 170.177,304.831 159.5,305.5C 151.096,305.288 142.762,304.454 134.5,303C 132.999,301.748 131.332,300.748 129.5,300C 122.002,300.142 115.336,297.976 109.5,293.5C 105.172,292.167 100.839,290.834 96.5,289.5C 95.6184,288.24 94.6184,287.074 93.5,286C 89.367,283.698 85.367,281.198 81.5,278.5C 80.0451,276.78 79.2117,274.78 79,272.5C 75.0673,272.135 72.4007,270.135 71,266.5C 69.0358,264.568 66.8692,262.901 64.5,261.5C 62.0645,258.532 60.3979,255.532 59.5,252.5C 56.5781,250.687 53.5781,249.02 50.5,247.5C 49.1287,243.594 46.7954,240.594 43.5,238.5C 42.5857,236.336 41.419,234.336 40,232.5C 39.8184,229.774 39.3184,227.107 38.5,224.5C 36.1322,223.631 34.6322,221.965 34,219.5C 33.3333,214.167 33.3333,208.833 34,203.5C 37.4107,207.113 38.2441,211.113 36.5,215.5C 38.1439,215.714 39.6439,215.38 41,214.5C 41.9974,206.911 43.1641,207.244 44.5,215.5C 47.6419,218.791 49.4753,222.791 50,227.5C 51.1096,229.037 52.6096,229.703 54.5,229.5 Z"/></g>
<g><path style="opacity:1" fill="#82a2d4" d="M 212.5,193.5 C 213.752,201.359 213.752,209.359 212.5,217.5C 212.167,217.5 211.833,217.5 211.5,217.5C 211.5,216.167 211.5,214.833 211.5,213.5C 212.491,207.021 212.824,200.354 212.5,193.5 Z"/></g>
<g><path style="opacity:1" fill="#7da1d7" d="M 41.5,199.5 C 43.7339,203.522 45.4005,207.856 46.5,212.5C 45.8826,212.389 45.3826,212.056 45,211.5C 43.5162,207.553 42.3495,203.553 41.5,199.5 Z"/></g>
<g><path style="opacity:1" fill="#a0bce4" d="M 209.5,227.5 C 208.312,229.722 207.312,232.055 206.5,234.5C 205.71,235.401 204.71,236.068 203.5,236.5C 204.759,232.975 206.759,229.975 209.5,227.5 Z"/></g>
<g><path style="opacity:1" fill="#174da4" d="M 193.5,248.5 C 189.954,250.516 186.121,252.182 182,253.5C 181.964,251.059 181.131,249.059 179.5,247.5C 178.447,248.438 177.78,249.605 177.5,251C 178.116,253.543 178.449,256.043 178.5,258.5C 176.709,259.764 174.709,260.431 172.5,260.5C 168.359,260.006 164.359,259.006 160.5,257.5C 158.263,257.465 157.93,258.298 159.5,260C 159.2,262.024 158.367,262.524 157,261.5C 152.687,263.085 148.187,263.919 143.5,264C 142.663,265.011 142.33,266.178 142.5,267.5C 148.105,266.18 153.772,265.68 159.5,266C 154.942,267.763 150.275,269.097 145.5,270C 137.479,270.832 129.479,270.665 121.5,269.5C 122.651,268.269 123.817,268.269 125,269.5C 125.5,269 126,268.5 126.5,268C 125.033,266.902 124.199,265.402 124,263.5C 121.867,265.853 119.2,266.853 116,266.5C 109.844,263.604 103.344,261.604 96.5,260.5C 95.377,262.289 94.0436,262.622 92.5,261.5C 92.7093,260.914 93.0426,260.414 93.5,260C 91.1667,259.667 88.8333,259.333 86.5,259C 91.6863,257.451 91.5196,255.951 86,254.5C 82.2045,256.186 79.7045,255.02 78.5,251C 76.8659,250.506 75.1992,250.34 73.5,250.5C 69.8632,248.361 66.6965,245.694 64,242.5C 60.9701,237.985 57.8034,233.651 54.5,229.5C 52.1041,223.708 49.4374,218.041 46.5,212.5C 45.4005,207.856 43.7339,203.522 41.5,199.5C 41.3259,197.139 40.9926,194.806 40.5,192.5C 41.9348,191.21 42.9348,189.544 43.5,187.5C 45.2544,190.228 45.5877,193.061 44.5,196C 44.6465,197.727 45.3131,197.894 46.5,196.5C 47.8419,199.511 48.1753,202.511 47.5,205.5C 49.897,205.975 52.397,206.975 55,208.5C 54.8047,210.126 54.8047,211.793 55,213.5C 56.1096,211.963 57.6096,211.297 59.5,211.5C 60.031,215.291 61.031,218.957 62.5,222.5C 64.2251,223.015 65.8917,223.682 67.5,224.5C 70.8315,228.163 74.4982,231.496 78.5,234.5C 79.8485,236.611 79.5152,238.445 77.5,240C 78,240.5 78.5,241 79,241.5C 79.6739,240.422 80.6739,239.755 82,239.5C 111.74,254.343 142.074,256.343 173,245.5C 174.326,245.755 175.326,246.422 176,247.5C 177.731,245.383 179.898,243.883 182.5,243C 184.717,238.27 188.384,235.77 193.5,235.5C 193.739,237.467 193.406,239.301 192.5,241C 193.5,241.333 194.5,241.667 195.5,242C 193.75,243.754 193.083,245.921 193.5,248.5 Z"/></g>
<g><path style="opacity:1" fill="#214d9d" d="M 193.5,248.5 C 191.332,251.5 188.666,254 185.5,256C 180.048,259.082 174.715,262.249 169.5,265.5C 143.161,275.492 117.161,274.659 91.5,263C 84.5608,260.043 78.5608,255.876 73.5,250.5C 75.1992,250.34 76.8659,250.506 78.5,251C 79.7045,255.02 82.2045,256.186 86,254.5C 91.5196,255.951 91.6863,257.451 86.5,259C 88.8333,259.333 91.1667,259.667 93.5,260C 93.0426,260.414 92.7093,260.914 92.5,261.5C 94.0436,262.622 95.377,262.289 96.5,260.5C 103.344,261.604 109.844,263.604 116,266.5C 119.2,266.853 121.867,265.853 124,263.5C 124.199,265.402 125.033,266.902 126.5,268C 126,268.5 125.5,269 125,269.5C 123.817,268.269 122.651,268.269 121.5,269.5C 129.479,270.665 137.479,270.832 145.5,270C 150.275,269.097 154.942,267.763 159.5,266C 153.772,265.68 148.105,266.18 142.5,267.5C 142.33,266.178 142.663,265.011 143.5,264C 148.187,263.919 152.687,263.085 157,261.5C 158.367,262.524 159.2,262.024 159.5,260C 157.93,258.298 158.263,257.465 160.5,257.5C 164.359,259.006 168.359,260.006 172.5,260.5C 174.709,260.431 176.709,259.764 178.5,258.5C 178.449,256.043 178.116,253.543 177.5,251C 177.78,249.605 178.447,248.438 179.5,247.5C 181.131,249.059 181.964,251.059 182,253.5C 186.121,252.182 189.954,250.516 193.5,248.5 Z"/></g>
</svg>
